HIERARCHY
ROOT RootJoint
{
    OFFSET   0.000000   0.000000   0.000000
    CHANNELS 6 Xposition Yposition Zposition Xrotation Yrotation Zrotation
    JOINT pelvis_lowerback
    {
        OFFSET   0.000000   0.093605   0.000000
        CHANNELS 3 Xrotation Yrotation Zrotation
        JOINT lowerback_torso
        {
            OFFSET   0.000000   0.100000   0.000000
            CHANNELS 3 Xrotation Yrotation Zrotation
            JOINT torso_head
            {
                OFFSET   0.000000   0.282350   0.000000
                CHANNELS 3 Xrotation Yrotation Zrotation
                End Site
                {
                    OFFSET   0.000000   0.192650   0.000000
                }
            }
            JOINT rTorso_Clavicle
            {
                OFFSET  -0.001000   0.157500   0.000000
                CHANNELS 3 Xrotation Yrotation Zrotation
                JOINT rShoulder
                {
                    OFFSET  -0.117647   0.000000   0.000000
                    CHANNELS 3 Xrotation Yrotation Zrotation
                    JOINT rElbow
                    {
                        OFFSET  -0.245000   0.000000   0.000000
                        CHANNELS 3 Xrotation Yrotation Zrotation
                        JOINT rWrist
                        {
                            OFFSET  -0.240000   0.000000   0.000000
                            CHANNELS 3 Xrotation Yrotation Zrotation
                            End Site
                            {
                                OFFSET  -0.116353  -0.002500   0.000000
                            }
                        }
                    }
                }
            }
            JOINT lTorso_Clavicle
            {
                OFFSET   0.001000   0.157500   0.000000
                CHANNELS 3 Xrotation Yrotation Zrotation
                JOINT lShoulder
                {
                    OFFSET   0.117647   0.000000   0.000000
                    CHANNELS 3 Xrotation Yrotation Zrotation
                    JOINT lElbow
                    {
                        OFFSET   0.245000   0.000000   0.000000
                        CHANNELS 3 Xrotation Yrotation Zrotation
                        JOINT lWrist
                        {
                            OFFSET   0.240000   0.000000   0.000000
                            CHANNELS 3 Xrotation Yrotation Zrotation
                            End Site
                            {
                                OFFSET   0.116353  -0.002500   0.000000
                            }
                        }
                    }
                }
            }
        }
    }
    JOINT rHip
    {
        OFFSET  -0.100000  -0.051395   0.000000
        CHANNELS 3 Xrotation Yrotation Zrotation
        JOINT rKnee
        {
            OFFSET   0.000000  -0.410000   0.000000
            CHANNELS 3 Xrotation Yrotation Zrotation
            JOINT rAnkle
            {
                OFFSET   0.000000  -0.390000   0.000000
                CHANNELS 3 Xrotation Yrotation Zrotation
                JOINT rToeJoint
                {
                    OFFSET   0.000000  -0.050000   0.130000
                    CHANNELS 3 Xrotation Yrotation Zrotation
                    End Site
                    {
                        OFFSET  -0.010000   0.002000   0.060000
                    }
                }
            }
        }
    }
    JOINT lHip
    {
        OFFSET   0.100000  -0.051395   0.000000
        CHANNELS 3 Xrotation Yrotation Zrotation
        JOINT lKnee
        {
            OFFSET   0.000000  -0.410000   0.000000
            CHANNELS 3 Xrotation Yrotation Zrotation
            JOINT lAnkle
            {
                OFFSET   0.000000  -0.390000   0.000000
                CHANNELS 3 Xrotation Yrotation Zrotation
                JOINT lToeJoint
                {
                    OFFSET   0.000000  -0.050000   0.130000
                    CHANNELS 3 Xrotation Yrotation Zrotation
                    End Site
                    {
                        OFFSET   0.010000   0.002000   0.060000
                    }
                }
            }
        }
    }
}
MOTION
Frames: 14
Frame Time:   0.008333
 -2.037337   0.479472   4.591458  36.997639   8.894946  -2.978105  41.798762   9.335202  -5.219921   3.418653   3.655311  -2.039551  -7.024401  -5.093322   5.529037  -9.421343  43.520202  10.707141  -8.823205  26.486214  16.564368  -0.000456   5.671586   0.001954  10.010716  -4.173550 -90.034226 -13.907683 -40.818995  -9.311446  -0.141439 -21.714084 -15.068674   0.000603 -16.302650   0.000077  -1.325726 -10.726693  14.333020 -20.072077  18.742489  -9.943026  96.678457  -0.000739   0.000174  -1.905895   8.882411  -2.186565  -2.634848   0.000209   0.000044 -48.526781  -4.178408  -1.645778 125.952154  -0.001954  -0.001319  -6.712773  -6.312190   1.972980  -1.912462  -0.000391  -0.000733
 -2.037271   0.479687   4.590721  36.769434   8.649107  -2.896351  42.261409   9.357446  -5.289276   3.328462   3.613261  -2.156382  -7.018670  -5.074388   5.826870  -9.673253  43.571353  10.877233  -9.073697  26.550292  16.538908  -0.000577   5.836644   0.002128  10.008740  -4.384339 -90.027989 -14.030930 -40.861670  -9.493718  -0.192650 -21.368956 -15.206286   0.000851 -16.463586  -0.000068  -1.510550 -10.880634  15.857149 -19.984839  19.043388  -9.925139  96.678689  -0.000591   0.000140  -1.723030   8.987717  -2.359260  -2.548398   0.000302   0.000073 -48.546377  -4.068784  -1.779052 126.314301  -0.002351  -0.001560  -6.788619  -6.649677   1.928936  -1.878539  -0.000360  -0.000745
 -2.037077   0.479862   4.589821  36.516449   8.349881  -2.828407  42.740968   9.384585  -5.364283   3.252962   3.588401  -2.275292  -7.016655  -5.058730   6.108266  -9.935703  43.638659  11.037310  -9.315128  26.624323  16.499068  -0.000692   5.993695   0.002244  10.007200  -4.583694 -90.022977 -14.151742 -40.893259  -9.660289  -0.240254 -21.036110 -15.321623   0.000991 -16.609646  -0.000124  -1.669899 -11.046092  17.346444 -19.918371  19.325432  -9.892066  96.696735  -0.000481   0.000098  -1.550190   9.085929  -2.521068  -2.458840   0.000320   0.000069 -48.603631  -3.956112  -1.899982 126.710070  -0.002885  -0.001843  -6.858165  -6.967107   1.886351  -1.849049  -0.000340  -0.000734
 -2.036724   0.479989   4.588814  36.245920   8.005588  -2.772355  43.221286   9.420654  -5.442439   3.195867   3.580131  -2.392057  -7.013903  -5.044471   6.370865 -10.195842  43.715738  11.180367  -9.541139  26.702710  16.447288  -0.000789   6.142250   0.002301  10.005986  -4.768912 -90.018923 -14.264671 -40.919262  -9.814905  -0.283896 -20.722324 -15.426310   0.001071 -16.744253  -0.000117  -1.826705 -11.206803  18.817509 -19.865870  19.586221  -9.853182  96.720565  -0.000410   0.000055  -1.388490   9.177228  -2.672310  -2.376489   0.000277   0.000039 -48.683291  -3.847490  -2.018257 127.099205  -0.003451  -0.002099  -6.923134  -7.263475   1.845982  -1.823983  -0.000327  -0.000704
 -2.036202   0.480060   4.587735  35.963166   7.621185  -2.728686  43.694152   9.466125  -5.521676   3.154531   3.586685  -2.506118  -7.010196  -5.031133   6.616066 -10.449753  43.799616  11.308474  -9.751914  26.784178  16.388101  -0.000865   6.283041   0.002317  10.005018  -4.940495 -90.015640 -14.367354 -40.939834  -9.960093  -0.323294 -20.426824 -15.525029   0.001110 -16.868897  -0.000072  -1.983589 -11.363679  20.265920 -19.824738  19.826853  -9.811577  96.746331  -0.000368   0.000014  -1.237362   9.262140  -2.813626  -2.301193   0.000198  -0.000005 -48.776318  -3.744694  -2.134199 127.467858  -0.003981  -0.002304  -6.984202  -7.540028   1.807837  -1.802852  -0.000317  -0.000661
 -2.035503   0.480068   4.586609  35.671884   7.201439  -2.697906  44.154658   9.520438  -5.600429   3.126180   3.606465  -2.616846  -7.005892  -5.018625   6.845075 -10.696105  43.888168  11.424700  -9.948921  26.867903  16.325167  -0.000922   6.416890   0.002306  10.004240  -5.099335 -90.012978 -14.458515 -40.954608 -10.096991  -0.358155 -20.147855 -15.620125   0.001119 -16.984067  -0.000005  -2.136739 -11.522252  21.683376 -19.792894  20.048727  -9.769358  96.772779  -0.000347  -0.000025  -1.096160   9.341151  -2.945638  -2.232395   0.000103  -0.000056 -48.876776  -3.648178  -2.247011 127.812001  -0.004438  -0.002451  -7.041689  -7.798047   1.771865  -1.785014  -0.000307  -0.000611
 -2.034626   0.480010   4.585452  35.374714   6.751093  -2.680135  44.599785   9.582781  -5.677575   3.108627   3.637984  -2.723722  -7.001296  -5.006915   7.059031 -10.933798  43.979682  11.531064 -10.133130  26.953093  16.260854  -0.000961   6.544329   0.002277  10.003608  -5.245774 -90.010818 -14.537462 -40.963291 -10.226102  -0.388260 -19.883767 -15.712972   0.001104 -17.090237   0.000071  -2.281517 -11.688705  23.062512 -19.768377  20.253231  -9.728493  96.799425  -0.000342  -0.000061  -0.964245   9.414703  -3.068939  -2.169535   0.000003  -0.000108 -48.980611  -3.557938  -2.355980 128.131310  -0.004804  -0.002544  -7.095793  -8.038759   1.737995  -1.769878  -0.000295  -0.000557
 -2.033618   0.479754   4.584329  35.063984   6.272793  -2.672197  45.026679   9.566989  -5.720638   3.070755   3.702771  -2.892926  -7.025460  -4.896545   7.249699 -11.178715  44.080561  11.673410 -10.256911  27.104742  16.214334  -0.000940   6.647239   0.002130  10.003071  -5.375463 -90.008989 -14.556081 -40.925576 -10.316302  -0.446157 -19.544678 -15.811901   0.001252 -17.295739   0.000124  -2.390720 -11.796798  24.364845 -19.753602  20.425587  -9.681898  96.982432  -0.000807  -0.000349  -0.767166   9.507522  -3.152560  -2.104923  -0.000155  -0.000144 -49.045175  -3.461899  -2.423789 128.278700  -0.004421  -0.002285  -7.042804  -8.301811   1.597414  -1.745829  -0.000295  -0.000556
 -2.032557   0.478960   4.583196  34.682643   5.830729  -2.638868  45.416141   9.536798  -5.764137   3.059275   3.761745  -3.054629  -7.042226  -4.791788   7.426592 -11.385942  44.167123  11.817917 -10.369676  27.250685  16.197396  -0.000938   6.752077   0.002003  10.002652  -5.500524 -90.007499 -14.550793 -40.875787 -10.398336  -0.491080 -19.216150 -15.918710   0.001266 -17.484782   0.000104  -2.452103 -11.951752  25.544979 -19.767915  20.555534  -9.681071  97.208298  -0.001390  -0.000742  -0.571833   9.596811  -3.230344  -2.006152  -0.000396  -0.000250 -49.051977  -3.370950  -2.497796 128.377031  -0.003905  -0.001972  -6.993481  -8.548002   1.466107  -1.712750  -0.000318  -0.000583
 -2.031202   0.478574   4.582102  34.361495   5.294361  -2.708585  45.804020   9.559162  -5.767867   3.023002   3.857337  -3.214051  -7.082829  -4.694905   7.584243 -11.599627  44.275388  11.954947 -10.477223  27.397487  16.170429  -0.000902   6.850325   0.001914  10.002264  -5.609958 -90.006307 -14.543906 -40.818647 -10.488381  -0.533152 -18.902183 -16.020217   0.001322 -17.659202   0.000214  -2.529340 -12.113529  26.756816 -19.773320  20.707517  -9.575766  97.460126  -0.001969  -0.001062  -0.404819   9.676990  -3.303278  -1.975931  -0.000410  -0.000237 -49.105526  -3.302298  -2.488794 128.396001  -0.003203  -0.001608  -6.950543  -8.776845   1.343625  -1.689521  -0.000323  -0.000567
 -2.029616   0.478108   4.581031  34.042199   4.753115  -2.770685  46.159814   9.577854  -5.781826   3.004797   3.952434  -3.357610  -7.112732  -4.604888   7.735354 -11.798726  44.377879  12.083542 -10.577118  27.539316  16.148233  -0.000868   6.944583   0.001835  10.001931  -5.703574 -90.005313 -14.522802 -40.757490 -10.567968  -0.566464 -18.603124 -16.124641   0.001341 -17.819927   0.000332  -2.579281 -12.317557  27.914986 -19.768338  20.835189  -9.512954  97.707868  -0.002496  -0.001361  -0.239997   9.753009  -3.371821  -1.917424  -0.000529  -0.000274 -49.152898  -3.229948  -2.513270 128.402646  -0.002592  -0.001298  -6.911763  -8.990650   1.229269  -1.669380  -0.000324  -0.000542
 -2.027914   0.477600   4.580008  33.703715   4.212352  -2.829903  46.457749   9.584878  -5.816045   3.004150   4.023346  -3.519989  -7.119628  -4.517161   7.895066 -11.850279  44.449131  12.086647 -10.588816  27.689672  16.146731  -0.000808   7.029734   0.001600  10.014715  -5.681313 -89.871447 -14.486046 -40.688768 -10.637410  -0.589047 -18.307622 -16.227051   0.001296 -17.960587   0.000358  -2.624319 -12.460679  28.960222 -19.731003  20.943191  -9.471540  97.931154  -0.002870  -0.001564  -0.085450   9.824048  -3.435769  -1.862022  -0.000625  -0.000306 -49.178254  -3.162625  -2.541417 128.402060  -0.002072  -0.001036  -6.875793  -9.190377   1.122743  -1.649509  -0.000327  -0.000519
 -2.026060   0.477026   4.578996  33.370235   3.675268  -2.900540  46.745301   9.616045  -5.850908   2.998931   4.119279  -3.667942  -7.145514  -4.440732   8.028463 -11.951023  44.425131  12.166815 -10.663623  27.831786  16.181155  -0.000765   7.113500   0.001513  10.026676  -5.640360 -89.745689 -14.450538 -40.633416 -10.713032  -0.610746 -18.044171 -16.333846   0.001241 -18.098676   0.000379  -2.627219 -12.653262  29.927145 -19.690781  21.037489  -9.443962  98.140538  -0.003133  -0.001721   0.058635   9.890570  -3.495350  -1.811839  -0.000688  -0.000332 -49.211732  -3.102181  -2.569448 128.402863  -0.001661  -0.000829  -6.842488  -9.376639   1.023559  -1.631674  -0.000324  -0.000490
 -2.024094   0.476199   4.578179  33.068881   3.168101  -3.018579  46.879054   9.597689  -5.842777   3.066864   4.220720  -3.765061  -7.167253  -4.376171   8.064616 -12.122205  44.395937  12.394332 -10.671297  28.029749  16.172447  -0.000720   7.190919   0.001465  10.037605  -5.594133 -89.629499 -14.255576 -40.473206 -10.774161  -0.717005 -17.806197 -16.441165   0.001646 -18.421423   0.000481  -2.091991 -12.224578  29.081441 -19.681267  20.994734  -9.395930  98.455196  -0.004017  -0.002060   0.200803   9.878238  -3.495464  -1.843762  -0.000383  -0.000192 -49.139117  -3.043660  -2.513699 128.192960  -0.000581  -0.000284  -6.680740  -9.560552   0.835609  -1.562514  -0.000392  -0.000658
